<?xml version="1.0" standalone="no"?>
<!DOCTYPE svg PUBLIC "-//W3C//DTD SVG 20010904//EN"
 "http://www.w3.org/TR/2001/REC-SVG-20010904/DTD/svg10.dtd">
<svg version="1.0" xmlns="http://www.w3.org/2000/svg"
 width="422.000000pt" height="422.000000pt" viewBox="0 0 422.000000 422.000000"
 preserveAspectRatio="xMidYMid meet">
<metadata>
Created by potrace 1.14, written by Peter Selinger 2001-2017
</metadata>
<g transform="translate(0.000000,422.000000) scale(0.100000,-0.100000)"
fill="#000000" stroke="none">
<path d="M2059 4211 c-85 -27 -359 -158 -549 -262 -41 -23 -100 -55 -130 -71
-30 -16 -77 -43 -105 -59 -27 -16 -57 -32 -65 -36 -8 -3 -23 -13 -32 -21 -10
-8 -18 -12 -18 -8 0 4 -6 2 -12 -4 -7 -6 -83 -52 -168 -103 -85 -50 -156 -95
-158 -99 -2 -4 -8 -8 -13 -8 -15 0 -365 -228 -400 -260 -9 -8 -37 -31 -62 -50
-70 -53 -88 -97 -102 -249 -3 -29 -7 -57 -10 -61 -9 -14 20 -29 158 -81 26 -9
45 -13 42 -8 -9 14 43 -8 78 -34 18 -13 57 -34 87 -46 122 -52 129 -56 113
-62 -19 -6 -25 -59 -7 -59 7 0 10 8 7 19 -3 14 4 23 28 35 41 21 49 20 23 -2
-19 -16 -34 -45 -40 -79 -1 -7 4 -17 12 -24 26 -22 15 -48 -38 -87 -62 -46
-118 -68 -118 -48 0 8 7 19 15 26 13 11 14 10 9 -4 -7 -19 -4 -20 27 -3 48 25
72 47 74 66 1 11 7 26 14 34 10 13 9 15 -8 10 -14 -4 -21 -1 -21 9 0 8 -7 37
-15 66 -11 36 -22 53 -38 58 -31 10 -348 142 -371 155 -10 6 -22 7 -27 2 -15
-15 -24 -303 -24 -743 0 -500 10 -746 39 -965 14 -109 55 -151 306 -319 25
-16 47 -33 50 -36 3 -4 12 -9 20 -13 8 -4 60 -36 115 -72 55 -36 107 -68 115
-72 8 -3 38 -21 65 -38 63 -40 295 -175 301 -175 3 0 30 -16 60 -35 30 -19 61
-35 68 -35 8 0 16 -4 18 -8 8 -21 594 -319 641 -326 6 -1 17 -5 23 -8 60 -38
171 -4 459 142 198 100 366 190 375 199 3 3 23 15 45 26 22 11 68 37 103 57
34 21 67 38 72 38 6 0 10 5 10 10 0 6 4 10 9 10 13 0 285 161 289 172 2 4 8 8
12 8 12 0 144 83 148 92 2 5 7 8 12 8 7 0 142 87 175 113 6 4 34 25 64 47 104
76 160 141 148 173 -2 7 -1 19 3 27 4 8 11 49 15 90 4 41 9 78 11 81 12 20
-169 102 -251 114 -30 4 -64 18 -60 25 4 6 -120 68 -150 75 -5 1 -18 5 -27 9
-9 4 -21 5 -27 2 -5 -4 -7 3 -4 16 6 21 6 21 -38 -3 -24 -13 -47 -28 -51 -34
-5 -6 -8 -6 -8 1 0 7 12 20 28 30 15 9 32 25 39 33 17 22 16 66 -1 80 -8 7
-13 18 -12 26 5 34 135 122 160 108 11 -6 12 -13 6 -23 -8 -13 -10 -13 -10 2
0 25 -30 12 -81 -33 -29 -27 -40 -42 -31 -46 10 -4 9 -9 -5 -20 -13 -10 -14
-13 -3 -10 11 3 19 -11 30 -47 l16 -51 144 -62 c132 -56 196 -83 203 -82 1 0
30 -13 64 -30 71 -35 69 -35 70 -18 14 220 18 380 18 752 -1 457 -8 684 -30
865 -15 124 -21 148 -46 185 -33 48 -285 228 -503 361 -26 16 -56 34 -65 39
-178 110 -625 365 -640 365 -4 0 -14 7 -21 15 -7 8 -16 13 -20 10 -5 -3 -10
-1 -12 4 -2 7 -351 184 -368 187 -3 0 -16 5 -30 11 -14 6 -42 18 -62 26 -48
20 -116 28 -149 18z m791 -613 c0 -4 6 -8 13 -8 16 0 117 -104 117 -120 0 -7
-8 -10 -19 -7 -17 4 -18 1 -12 -17 7 -19 7 -28 -2 -68 -1 -7 -13 -25 -26 -40
-13 -14 -23 -30 -23 -35 1 -4 -9 -19 -21 -32 -14 -15 -17 -22 -7 -19 9 3 32
-10 54 -31 21 -20 35 -29 31 -21 -17 34 166 -164 190 -205 31 -53 65 -142 57
-149 -3 -3 0 -6 7 -6 7 0 10 -4 7 -9 -8 -12 4 -42 14 -36 11 7 -36 160 -70
230 -40 81 -47 91 -107 155 -52 55 -52 55 -29 67 13 7 31 23 40 37 20 31 22
47 2 20 -22 -29 -28 -12 -12 34 8 22 12 42 10 45 -3 3 0 8 7 13 9 5 11 1 6
-15 -4 -16 -2 -21 7 -18 7 3 13 0 13 -6 0 -7 3 -23 6 -37 2 -14 1 -47 -3 -73
-6 -39 -4 -52 12 -72 15 -20 23 -23 42 -15 23 8 25 5 61 -108 40 -127 46 -146
46 -149 0 -2 5 -17 10 -35 19 -66 21 -124 4 -138 -19 -16 -20 -34 0 -26 12 4
15 -2 15 -28 0 -37 -36 -165 -51 -181 -5 -5 -9 -17 -9 -26 0 -9 -6 -22 -14
-28 -12 -10 -12 -6 0 28 26 77 38 207 23 247 -7 18 -8 18 -9 -1 -7 -85 -12
-121 -19 -128 -5 -5 -9 6 -9 25 0 18 -3 47 -6 63 -16 83 -22 145 -14 145 4 0
8 11 8 25 0 14 -4 25 -10 25 -5 0 -10 -4 -10 -10 0 -20 -30 -9 -47 18 -9 15
-28 36 -42 47 -45 37 -62 56 -57 64 10 15 -46 61 -73 61 -19 0 -32 10 -49 36
-23 35 -26 36 -67 31 -37 -5 -45 -3 -50 12 -3 10 -17 23 -30 29 -14 6 -25 17
-26 24 0 7 -2 28 -5 47 -3 22 1 38 8 42 17 11 19 50 4 65 -7 6 -22 15 -34 18
-12 4 -20 12 -17 17 4 5 14 5 27 -2 12 -6 18 -7 14 -1 -9 16 18 21 37 7 9 -7
17 -16 17 -20 0 -4 -6 -2 -13 4 -21 17 -29 0 -11 -20 9 -10 14 -25 11 -34 -4
-8 -3 -15 2 -15 14 0 28 64 19 90 -4 14 -20 33 -36 43 l-27 18 38 -6 c54 -7
77 -22 77 -48 0 -22 -1 -22 -20 3 l-20 25 10 -29 c13 -34 5 -79 -16 -97 -8 -6
-14 -16 -14 -22 0 -5 9 2 21 17 11 14 25 24 30 21 5 -4 14 7 20 22 6 15 14 34
18 42 4 8 2 40 -5 70 -7 30 -11 59 -8 63 3 5 -1 17 -9 26 -8 9 -27 38 -41 64
l-27 48 36 -17 c19 -9 35 -20 35 -25z m164 -212 c15 -5 16 -9 6 -21 -7 -8 -10
-26 -8 -40 7 -33 -16 -65 -33 -48 -10 10 -10 18 -1 38 17 36 15 44 -4 17 -17
-24 -44 -30 -44 -8 0 7 7 19 15 26 9 7 13 15 10 18 -5 6 27 32 35 28 3 -2 13
-6 24 -10z m-317 -146 c3 -8 8 -26 10 -40 2 -14 8 -29 14 -34 12 -13 12 -46 0
-46 -5 0 -16 6 -24 14 -12 12 -16 11 -32 -7 -12 -14 -20 -17 -23 -9 -5 16 -29
16 -35 0 -4 -10 -7 -10 -18 -1 -9 9 -16 9 -25 2 -7 -6 -28 -7 -51 -3 -21 4
-32 9 -25 11 6 3 12 10 12 16 -1 7 -9 2 -18 -9 -10 -12 -34 -25 -53 -30 -44
-10 -38 -9 -84 -22 -34 -10 -184 -69 -320 -127 -22 -9 -96 -44 -163 -76 -68
-32 -128 -59 -134 -59 -5 0 -22 -6 -36 -14 -54 -28 -112 -49 -119 -43 -3 4 -7
22 -9 41 -1 29 2 36 25 44 14 6 35 14 46 18 11 4 22 8 25 8 5 1 162 62 195 76
42 18 181 81 196 90 11 6 21 4 31 -7 12 -12 17 -12 23 -2 5 8 4 10 -3 5 -7 -4
-12 -3 -12 3 0 11 56 43 98 55 42 13 22 -12 -23 -30 -25 -9 -44 -19 -42 -21 4
-3 70 18 107 34 8 3 18 5 23 5 4 -1 7 3 7 9 0 5 5 7 11 3 6 -3 15 0 20 7 4 8
12 14 16 15 4 0 34 8 65 18 32 9 62 15 68 11 5 -3 10 -1 10 4 0 6 8 11 18 12
14 0 14 2 -3 8 -11 5 -24 6 -29 3 -5 -3 -6 0 -2 7 4 6 11 9 15 6 9 -5 53 29
52 39 -1 3 2 6 7 6 4 0 8 -4 8 -10 1 -5 3 -12 4 -15 3 -6 7 -22 9 -34 0 -5 7
-11 15 -14 10 -4 12 0 8 16 -2 12 -8 27 -12 32 -11 14 8 58 21 49 8 -5 8 -8 0
-14 -8 -5 -4 -20 14 -51 13 -24 25 -42 26 -39 5 29 4 50 -3 50 -11 0 -10 67 1
75 5 3 17 -3 27 -12 19 -19 43 -26 45 -12 2 10 5 25 9 37 1 4 4 -2 7 -13 2
-11 7 -27 10 -35z m557 -56 c-5 -60 -9 -64 -24 -19 -11 32 -10 38 7 50 10 8
19 15 19 15 1 0 0 -21 -2 -46z m-844 -14 c0 -5 -8 -10 -17 -10 -15 0 -16 2 -3
10 19 12 20 12 20 0z m-40 -10 c0 -5 -4 -10 -10 -10 -5 0 -10 5 -10 10 0 6 5
10 10 10 6 0 10 -4 10 -10z m-37 -21 c-5 -5 -20 -11 -32 -12 -11 -1 -21 -4
-21 -8 0 -4 -9 -9 -20 -12 -28 -7 -25 9 3 18 12 4 25 8 29 9 3 0 10 4 14 9 4
4 14 7 23 7 10 0 12 -3 4 -11z m974 -113 c2 -21 17 -68 33 -103 34 -74 35 -77
16 -92 -18 -15 -46 11 -46 42 0 20 0 20 15 1 13 -17 14 -16 5 14 -5 18 -9 33
-9 35 0 1 -5 16 -11 32 -22 53 -39 128 -33 138 9 15 27 -24 30 -67z m-1757
-226 c0 -16 1 -33 3 -37 1 -5 -8 -9 -20 -11 -13 -2 -23 -10 -23 -17 0 -16 -27
-32 -50 -30 -8 1 -23 -3 -32 -7 -11 -5 -18 -5 -18 2 0 5 5 10 10 10 6 0 10 7
10 15 0 8 4 15 9 15 5 0 12 14 16 31 5 22 16 35 38 45 48 20 57 17 57 -16z
m-140 -20 c0 -5 -2 -10 -4 -10 -3 0 -8 5 -11 10 -3 6 -1 10 4 10 6 0 11 -4 11
-10z m-9 -36 c13 -14 20 -24 14 -22 -5 2 -11 -1 -12 -5 -6 -22 -33 -37 -93
-52 -3 0 -28 -7 -57 -14 -29 -7 -52 -16 -52 -19 3 -18 -3 -22 -19 -13 -14 7
-25 6 -41 -5 -11 -8 -40 -17 -64 -19 -23 -2 -54 -7 -68 -10 -23 -4 -26 -2 -23
21 1 15 -1 37 -6 49 -8 22 -3 39 15 42 50 8 107 11 97 4 -8 -5 -3 -14 19 -30
18 -13 28 -18 24 -11 -6 10 -4 12 8 7 11 -4 18 1 23 16 5 12 7 26 6 30 -1 5 2
6 7 3 5 -4 11 -1 13 5 2 6 15 13 28 15 42 5 78 14 102 23 37 16 53 12 79 -15z
m-539 -19 c10 2 20 -1 24 -6 3 -5 10 -7 15 -4 5 4 9 1 9 -4 0 -13 -17 -14 -25
-2 -3 5 -16 8 -29 5 -16 -3 -26 2 -30 12 -5 13 -3 14 6 7 7 -6 21 -9 30 -8z
m-52 -15 c0 -5 -4 -10 -10 -10 -5 0 -10 5 -10 10 0 6 5 10 10 10 6 0 10 -4 10
-10z m337 -17 c-3 -3 -11 -2 -17 2 -9 6 -9 10 1 16 14 8 27 -7 16 -18z m-190
3 c4 -4 4 -7 -2 -6 -28 6 -36 0 -21 -16 9 -8 16 -30 16 -48 0 -17 6 -38 13
-45 10 -11 9 -12 -2 -6 -9 5 -12 4 -8 -2 9 -14 47 -24 47 -12 0 5 7 9 15 9 8
0 15 -9 15 -21 0 -11 5 -17 10 -14 6 4 8 11 5 16 -8 12 37 -5 70 -27 14 -9 25
-13 25 -10 0 4 10 1 23 -6 12 -7 26 -11 31 -10 5 2 6 -4 3 -11 -3 -9 4 -19 19
-26 15 -6 24 -7 24 -1 0 6 -7 10 -15 10 -8 0 -15 4 -15 9 0 14 48 0 54 -16 4
-9 2 -11 -6 -7 -7 5 -8 3 -3 -5 4 -7 16 -11 26 -8 11 3 17 1 14 -3 -5 -7 67
-46 100 -54 18 -5 65 -26 124 -55 85 -42 124 -53 152 -43 22 9 20 11 -34 36
-32 14 -62 26 -67 26 -6 0 -10 5 -10 10 0 6 -9 10 -19 10 -11 0 -23 5 -26 10
-3 6 -15 10 -25 10 -26 0 -91 40 -84 51 7 11 39 12 62 0 9 -5 28 -13 42 -19
14 -6 66 -27 115 -47 50 -21 110 -46 135 -58 25 -11 51 -21 58 -23 8 -1 29
-10 48 -18 134 -62 263 -114 268 -108 3 3 6 0 6 -6 0 -7 7 -12 15 -12 8 0 23
-4 33 -10 42 -23 145 -61 157 -57 6 3 25 -6 40 -19 15 -13 34 -24 42 -24 7 0
32 -9 56 -19 158 -70 326 -143 342 -147 6 -1 28 -10 50 -20 47 -21 64 -25 88
-25 9 0 17 -4 17 -10 0 -8 30 -23 130 -66 19 -9 49 -21 65 -29 43 -19 57 -20
82 -6 13 7 40 14 60 16 21 2 30 1 20 -1 -9 -3 -15 -8 -12 -12 2 -5 -9 -11 -25
-14 -16 -4 -34 -16 -40 -27 -10 -19 -9 -20 20 -15 34 6 49 -4 73 -52 12 -23
13 -33 4 -42 -9 -10 -8 -11 8 -5 11 4 17 4 13 -1 -4 -4 -33 -10 -65 -12 -32
-3 -60 -7 -62 -8 -2 -2 13 -11 33 -19 20 -8 36 -21 36 -28 0 -9 -3 -10 -8 -2
-7 11 -39 24 -68 28 -7 1 -17 6 -21 11 -4 4 -2 5 6 0 11 -6 12 -2 7 21 -4 16
-7 42 -7 57 0 17 -6 30 -16 34 -15 6 -14 7 3 14 17 7 16 8 -6 9 -14 2 -31 2
-38 1 -7 -1 -29 3 -48 9 -24 8 -34 18 -35 33 0 12 -3 16 -6 10 -6 -17 -19 -16
-71 4 -26 10 -41 21 -38 29 3 7 -2 15 -10 18 -28 11 -38 6 -18 -9 19 -15 19
-15 -1 -12 -22 3 -76 37 -59 37 5 0 15 -5 22 -12 9 -9 12 -9 12 0 0 7 -8 15
-17 18 -10 3 -35 15 -55 25 -21 11 -47 22 -59 24 -12 3 -54 20 -93 38 -140 67
-205 90 -191 67 3 -5 0 -10 -7 -10 -16 -1 105 -65 152 -81 51 -17 120 -51 120
-60 0 -17 -20 -18 -66 -2 -27 9 -53 19 -59 23 -5 4 -21 11 -35 15 -14 4 -48
18 -77 31 -28 13 -103 44 -165 70 -62 25 -126 52 -143 59 -143 64 -376 157
-399 159 -16 2 -35 11 -41 20 -7 9 -18 16 -24 16 -6 0 -91 34 -189 76 -172 74
-225 96 -229 95 -2 0 -28 11 -58 24 -31 14 -64 25 -75 25 -11 0 -20 4 -20 9 0
8 -80 47 -183 87 -46 18 -64 21 -85 13 -15 -6 -29 -11 -32 -11 -3 0 -13 -4
-22 -9 -13 -7 -18 -6 -18 3 0 9 -3 9 -11 -2 -9 -13 -10 -13 -6 0 2 8 12 17 22
19 26 5 65 31 65 43 0 5 -13 8 -29 6 -32 -3 -61 25 -80 75 -12 32 -8 35 53 38
27 2 50 8 53 15 5 13 27 13 40 0z m2366 -16 c-3 -12 -8 -19 -11 -16 -5 6 5 36
12 36 2 0 2 -9 -1 -20z m-2513 -135 c0 -27 -31 -79 -69 -114 -25 -23 -32 -35
-22 -39 7 -2 17 2 22 9 5 8 9 10 9 4 0 -5 -16 -27 -35 -47 -19 -20 -35 -41
-35 -47 0 -10 -64 -77 -106 -111 -11 -9 -27 -27 -36 -40 l-17 -25 8 31 c5 17
14 40 20 51 5 11 8 23 5 25 -2 3 9 12 25 20 45 21 111 86 111 108 0 11 -4 20
-10 20 -16 0 -11 36 7 51 15 13 15 12 4 -8 -8 -15 -8 -23 -1 -23 6 0 18 17 28
38 9 20 21 40 26 43 5 4 6 11 4 15 -3 5 4 18 15 29 11 11 17 14 13 8 -4 -7 -2
-13 3 -13 6 0 11 7 11 15 0 8 5 15 10 15 6 0 10 -7 10 -15z m2480 -44 c-5 -11
-15 -23 -21 -27 -6 -3 -3 5 6 20 20 30 30 35 15 7z m343 -468 c-18 -38 -38
-63 -56 -71 -16 -8 -31 -20 -34 -28 -3 -8 -11 -14 -18 -14 -7 0 -20 -15 -28
-32 -14 -28 -14 -35 -2 -49 13 -13 13 -18 -1 -35 -13 -16 -15 -17 -10 -1 3 9
2 17 -2 17 -9 0 -52 -81 -52 -97 0 -15 -48 -48 -56 -40 -15 14 12 71 51 111
24 24 41 46 38 50 -3 3 -12 1 -20 -5 -28 -24 -11 9 22 41 18 18 33 37 32 41
-2 10 102 119 114 119 4 0 16 13 25 30 29 49 27 26 -3 -37z m-2675 -275 c-22
-58 -37 -231 -21 -241 5 -4 10 -1 11 6 4 55 9 88 15 93 4 4 7 3 8 -2 0 -5 3
-20 5 -34 2 -14 6 -36 8 -50 2 -14 5 -25 6 -25 7 0 5 -74 -1 -92 -5 -13 -4
-33 1 -45 7 -18 9 -19 9 -5 1 9 3 17 5 17 2 0 10 2 18 5 8 3 21 -8 31 -27 10
-18 38 -48 62 -66 25 -19 42 -39 39 -47 -7 -17 36 -60 61 -60 25 1 55 -16 55
-31 0 -6 9 -19 19 -28 16 -14 26 -16 54 -8 31 9 36 7 45 -13 6 -13 20 -26 31
-30 21 -6 25 -15 36 -78 4 -27 3 -37 -4 -32 -16 9 -31 -36 -20 -57 5 -10 21
-21 34 -24 14 -3 25 -10 25 -15 0 -12 -4 -12 -45 8 -33 16 -40 27 -36 63 2 13
1 13 -8 0 -6 -8 -11 -23 -11 -32 0 -10 -4 -18 -10 -18 -5 0 -7 -6 -4 -13 3 -8
17 -11 38 -9 20 2 37 -1 41 -9 6 -9 -1 -11 -28 -6 -45 7 -47 -4 -5 -36 l31
-25 -49 9 c-48 9 -84 32 -71 45 4 4 17 -1 28 -12 l22 -19 -17 32 c-9 17 -13
38 -10 47 3 8 -3 23 -13 33 -15 15 -22 17 -31 7 -8 -9 -8 -14 -1 -16 8 -3 8
-15 0 -43 -10 -37 -3 -97 13 -123 3 -6 1 -14 -5 -18 -9 -5 -8 -10 2 -18 8 -6
25 -31 38 -56 13 -25 28 -48 35 -52 8 -6 7 -8 -2 -8 -14 0 -53 18 -62 29 -3 3
-21 17 -40 30 -47 31 -103 103 -87 113 6 4 15 2 19 -5 4 -7 5 2 2 20 -9 45 2
78 36 113 30 31 39 47 20 35 -18 -11 -11 1 12 21 12 10 18 14 15 7 -13 -22 37
-10 59 14 12 13 26 23 31 23 6 0 16 7 23 15 11 13 7 13 -30 0 -24 -8 -49 -20
-57 -26 -20 -17 -59 -2 -100 39 -20 20 -31 28 -23 17 8 -11 -20 13 -61 53 -70
67 -159 194 -159 225 0 8 -3 17 -7 21 -4 3 -8 12 -9 19 -10 48 -32 111 -33 92
0 -5 4 -30 10 -55 6 -25 12 -53 14 -63 2 -9 7 -22 10 -27 3 -5 8 -20 10 -32 5
-23 57 -129 75 -151 5 -7 32 -37 59 -67 53 -58 59 -70 38 -70 -17 0 -54 -50
-63 -84 -3 -14 -11 -23 -16 -20 -7 4 -8 36 -5 83 7 88 -2 108 -49 105 -28 -1
-31 2 -44 45 -7 25 -16 51 -21 56 -4 6 -8 15 -9 20 -3 24 -13 63 -26 100 -29
84 -42 191 -25 208 16 16 14 37 -3 31 -17 -7 -13 42 10 126 15 51 60 150 68
150 2 0 -5 -24 -16 -52z m-61 -23 c-7 -13 -14 -20 -15 -14 -2 5 2 16 8 24 18
21 20 18 7 -10z m80 -85 c1 -11 -2 -20 -8 -20 -10 0 -12 23 -2 33 9 9 9 10 10
-13z m2211 -33 c-1 -18 4 -43 11 -55 9 -17 9 -22 -1 -23 -27 -1 -69 -8 -87
-14 -11 -3 -23 0 -27 6 -5 8 -3 10 7 4 8 -4 5 1 -6 12 -11 11 -23 19 -27 17
-3 -2 -9 2 -12 8 -5 14 -26 -5 -56 -51 -9 -14 -28 -24 -50 -26 -20 -3 -57 -11
-83 -19 -43 -13 -49 -13 -69 4 -20 15 -21 21 -10 44 6 14 18 27 27 27 17 2 24
3 45 11 43 17 85 28 106 28 17 0 22 4 17 16 -4 12 0 14 21 8 18 -4 33 -1 45
10 10 9 24 14 32 11 8 -3 27 -1 43 3 65 18 75 15 74 -21z m-2322 -63 c-4 -14
-9 -24 -12 -21 -3 2 -2 17 2 31 3 15 9 25 11 22 3 -3 2 -17 -1 -32z m1868 -60
c-13 -25 -24 -52 -24 -60 0 -8 -4 -12 -10 -9 -5 3 -10 2 -10 -2 0 -5 -13 -10
-29 -11 -32 -2 -46 22 -28 53 7 13 6 16 -2 11 -6 -4 -11 -2 -11 3 0 6 9 11 20
11 11 0 20 5 20 11 0 7 9 9 21 6 16 -4 18 -3 9 8 -9 11 -5 14 22 18 18 2 36 5
40 5 3 1 -4 -18 -18 -44z m316 37 c0 -5 -7 -11 -15 -15 -9 -3 -15 0 -15 9 0 8
7 15 15 15 8 0 15 -4 15 -9z m307 -17 c-3 -3 -12 -4 -19 -1 -8 3 -5 6 6 6 11
1 17 -2 13 -5z m-750 -46 c-2 -7 -1 -22 4 -34 4 -11 4 -25 1 -30 -4 -6 -81
-40 -172 -76 -141 -55 -166 -62 -172 -49 -6 14 -7 14 -7 -2 -1 -18 -39 -38
-209 -111 -91 -40 -92 -40 -92 -27 0 5 19 18 43 29 61 30 28 27 -40 -4 -32
-15 -52 -28 -45 -31 16 -6 16 -23 -1 -23 -7 0 -30 -9 -51 -21 -21 -11 -35 -15
-31 -8 4 6 23 17 41 25 23 10 32 19 28 29 -6 14 -8 14 -18 1 -16 -21 -106 -49
-178 -55 -5 -1 -8 -5 -8 -11 0 -5 3 -9 8 -9 4 1 16 1 27 0 14 -2 9 -6 -15 -14
-24 -8 -35 -18 -35 -32 0 -31 -17 -24 -29 12 -14 41 -42 72 -31 33 12 -36 13
-80 3 -80 -4 0 -8 6 -9 13 -2 31 -9 52 -18 55 -6 2 -11 10 -11 17 0 8 -5 17
-11 21 -9 5 -10 -1 -5 -22 14 -55 13 -104 -3 -104 -7 0 -20 8 -27 18 -11 14
-16 15 -33 5 -25 -15 -34 -17 -26 -4 3 5 1 12 -5 16 -5 3 -10 18 -10 33 0 15
-7 36 -15 46 -20 27 -19 36 5 36 11 0 20 -4 20 -10 0 -5 7 -10 16 -10 8 0 13
4 10 9 -3 5 2 12 11 15 9 4 20 1 24 -6 6 -9 11 -9 21 0 8 6 23 9 35 6 11 -3
24 -1 27 5 8 12 56 -7 56 -23 0 -5 6 -3 13 6 6 9 41 24 77 34 84 22 322 114
425 163 111 53 186 88 215 100 14 6 61 26 105 45 91 39 98 41 92 24z m160 -14
c-3 -3 -12 -4 -19 -1 -8 3 -5 6 6 6 11 1 17 -2 13 -5z m-1918 -53 c10 -7 12
-20 7 -51 -4 -23 -2 -47 3 -54 13 -16 41 -115 41 -145 0 -25 -1 -25 -14 -6 -7
11 -16 40 -18 65 -3 25 -19 74 -36 109 -24 49 -29 68 -21 78 13 15 19 16 38 4z
m99 -338 c9 -28 8 -34 -7 -43 -17 -9 -19 -5 -16 33 4 62 5 62 23 10z m858 2
c-10 -8 -24 -11 -29 -8 -6 4 -2 10 9 14 31 12 40 9 20 -6z m-606 -140 c-8 -9
-4 -11 14 -8 13 3 26 1 29 -4 9 -14 -43 -73 -64 -73 -24 0 -37 29 -19 40 8 5
11 19 7 36 -6 36 13 60 30 37 9 -11 9 -20 3 -28z m-70 0 c-5 -7 -13 -32 -16
-56 -4 -24 -7 -45 -8 -46 -1 -1 -6 9 -13 23 -6 13 -7 22 -2 18 5 -3 9 4 9 15
0 32 19 73 30 66 8 -5 8 -11 0 -20z"/>
<path d="M3075 3340 c-3 -5 -1 -10 4 -10 6 0 11 5 11 10 0 6 -2 10 -4 10 -3 0
-8 -4 -11 -10z"/>
<path d="M2849 3298 c-6 -13 -31 -38 -57 -55 -27 -19 -40 -33 -30 -33 9 0 20
5 23 10 3 6 16 10 28 10 13 0 33 14 50 35 16 20 21 32 12 29 -11 -5 -14 -2 -9
10 9 25 -5 19 -17 -6z"/>
<path d="M2865 3220 c27 -12 43 -12 25 0 -8 5 -22 9 -30 9 -10 0 -8 -3 5 -9z"/>
<path d="M2610 3247 c0 -7 3 -17 8 -21 7 -8 9 -14 11 -47 0 -12 6 -19 14 -16
18 6 9 59 -14 80 -14 13 -19 14 -19 4z"/>
<path d="M1080 2520 c0 -5 5 -10 10 -10 6 0 10 5 10 10 0 6 -4 10 -10 10 -5 0
-10 -4 -10 -10z"/>
<path d="M1694 2268 c-4 -7 -3 -8 4 -4 7 4 12 3 12 -2 0 -5 7 -9 15 -9 20 0
19 4 -4 17 -14 7 -22 7 -27 -2z"/>
<path d="M1768 2252 c-29 -6 -21 -16 25 -33 39 -14 43 -14 43 2 0 18 -41 37
-68 31z m52 -28 c0 -2 -9 0 -20 6 -11 6 -20 13 -20 16 0 2 9 0 20 -6 11 -6 20
-13 20 -16z"/>
<path d="M1868 2221 c24 -20 30 -37 10 -25 -9 5 -8 2 1 -9 11 -13 17 -15 28
-6 16 14 66 -7 56 -24 -4 -6 2 -8 15 -5 15 4 22 2 22 -8 0 -8 7 -14 15 -14 8
0 15 -4 15 -10 0 -5 5 -10 11 -10 6 0 9 7 6 14 -4 10 -1 13 9 9 7 -3 14 -11
14 -18 0 -6 19 -20 43 -30 23 -10 62 -27 87 -38 93 -41 110 -47 110 -38 0 5 9
9 20 8 11 -1 20 -8 20 -16 0 -12 3 -12 12 -3 18 18 -6 31 -44 27 -28 -4 -39 9
-15 18 12 5 -19 11 -37 8 -23 -5 -56 11 -56 25 0 11 -5 14 -16 10 -10 -4 -23
3 -37 20 -17 22 -21 24 -29 10 -5 -8 -15 -13 -24 -9 -13 5 -13 7 -2 14 10 7 9
9 -4 9 -10 0 -18 4 -18 8 0 4 -17 14 -37 21 -47 17 -119 48 -155 67 -36 19
-45 18 -20 -5z"/>
<path d="M2375 1999 c-4 -6 -1 -15 6 -20 8 -5 15 -4 17 1 2 6 8 7 14 4 6 -4 9
-1 6 7 -6 18 -34 23 -43 8z"/>
<path d="M2446 1969 c3 -5 12 -9 21 -9 19 0 9 13 -12 16 -8 1 -13 -2 -9 -7z"/>
<path d="M3120 1696 c0 -2 7 -7 16 -10 8 -3 12 -2 9 4 -6 10 -25 14 -25 6z"/>
<path d="M1260 1026 c0 -2 7 -7 16 -10 8 -3 12 -2 9 4 -6 10 -25 14 -25 6z"/>
<path d="M1307 1009 c7 -7 15 -10 18 -7 3 3 -2 9 -12 12 -14 6 -15 5 -6 -5z"/>
<path d="M1395 972 c-18 -13 -38 -42 -29 -42 5 0 17 12 27 25 19 26 19 30 2
17z"/>
<path d="M2910 1520 c0 -5 5 -10 11 -10 5 0 7 5 4 10 -3 6 -8 10 -11 10 -2 0
-4 -4 -4 -10z"/>
<path d="M2060 1200 c-12 -7 -10 -9 8 -7 12 0 22 5 22 9 0 11 -12 10 -30 -2z"/>
<path d="M1527 1058 c-8 -32 -1 -55 23 -68 16 -9 16 -6 5 28 -7 20 -14 44 -17
52 -3 10 -7 5 -11 -12z"/>
<path d="M836 1355 c4 -8 8 -15 10 -15 2 0 4 7 4 15 0 8 -4 15 -10 15 -5 0 -7
-7 -4 -15z"/>
<path d="M3460 1594 c0 -8 5 -12 10 -9 6 4 8 11 5 16 -9 14 -15 11 -15 -7z"/>
</g>
</svg>
