<svg xmlns="http://www.w3.org/2000/svg" xmlns:svg="http://www.w3.org/2000/svg" id="svg5" width="1080" height="1080" version="1.1" viewBox="0 0 1080 1080" xml:space="preserve"><g id="layer3"><g id="g1"><path id="path25420" style="fill:#5dc879;fill-opacity:1;stroke:none;stroke-width:.990104;stroke-linecap:round;stroke-linejoin:round;stroke-dasharray:none" d="m 530.12478,17.411797 a 56.93666,56.93666 0 0 0 -18.57893,6.762779 L 108.06858,257.1209 a 56.93666,56.93666 0 0 0 -28.465867,49.30373 v 270.98344 h -0.0024 l -0.01197,131.47194 113.868137,-65.7383 0.007,-32.86448 V 339.29379 L 540.00938,139.21662 829.62557,306.42463 803.15436,321.70869 568.47524,186.21698 a 56.93666,56.93666 0 0 0 -56.92939,0 L 248.40088,338.14093 a 56.930967,56.930967 0 0 0 -20.83787,77.7696 56.930967,56.930967 0 0 0 77.7696,20.83786 L 540.00938,301.25902 774.68847,436.74839 a 56.93666,56.93666 0 0 0 56.92938,0 l 140.33464,-81.02236 a 56.93666,56.93666 0 0 0 0,-98.60513 L 568.47524,24.174576 a 56.93666,56.93666 0 0 0 -38.35046,-6.762779 z"/><path id="path36875" style="display:inline;fill:#00b4bc;fill-opacity:1;stroke:none;stroke-width:.990104;stroke-linecap:round;stroke-linejoin:round;stroke-dasharray:none" d="m 1000.4114,371.12 -113.86816,65.73831 -0.01,32.86446 h 0.002 V 740.70622 L 539.99068,940.78572 250.37453,773.57537 276.8457,758.29131 511.52481,893.78302 a 56.93666,56.93666 0 0 0 56.92938,0 L 831.59918,741.85907 a 56.930967,56.930967 0 0 0 20.83786,-77.7696 56.930967,56.930967 0 0 0 -77.76959,-20.83786 L 539.99068,778.74098 305.31156,643.25161 a 56.93666,56.93666 0 0 0 -56.92939,0 l -140.33463,81.02237 a 56.93666,56.93666 0 0 0 0,98.60512 l 403.47727,232.9463 a 56.93666,56.93666 0 0 0 38.35047,6.7628 56.93666,56.93666 0 0 0 18.57891,-6.7628 L 971.93148,822.8791 a 56.93666,56.93666 0 0 0 28.46582,-49.30373 v -270.98111 0 z"/></g></g></svg>